<svg width="163" height="47" viewBox="0 0 163 47" fill="none" xmlns="http://www.w3.org/2000/svg">
<path d="M40.0536 11.7303C34.6678 7.70002 29.5077 7.81329 29.5077 7.81329L28.9804 8.41583C35.3832 10.3367 38.3587 13.1614 38.3587 13.1614C29.198 8.11785 17.5298 8.15404 8.00145 13.1614C8.00145 13.1614 11.0898 10.1858 17.8696 8.26496L17.4931 7.81282C17.4931 7.81282 12.3706 7.70002 6.94724 11.7298C6.94724 11.7298 1.52344 21.4846 1.52344 33.4997C1.52344 33.4997 4.68748 38.9235 13.0112 39.1872C13.0112 39.1872 14.4047 37.53 15.5346 36.0988C10.7514 34.6677 8.94333 31.6921 8.94333 31.6921C11.9485 33.5726 14.9871 34.7495 18.7738 35.4963C24.9346 36.7643 32.598 35.4606 38.3216 31.6921C38.3216 31.6921 36.4383 34.7429 31.5043 36.1364C32.6341 37.53 33.9901 39.1496 33.9901 39.1496C42.3138 38.8859 45.4774 33.4621 45.4774 33.5002C45.4769 21.4851 40.0536 11.7303 40.0536 11.7303ZM16.476 29.9973C14.3667 29.9973 12.6342 28.1516 12.6342 25.8542C12.7884 20.3519 20.2022 20.3689 20.3178 25.8542C20.3178 28.1516 18.6225 29.9973 16.476 29.9973ZM30.223 29.9973C28.1137 29.9973 26.3813 28.1516 26.3813 25.8542C26.5505 20.3628 33.8717 20.3604 34.0648 25.8542C34.0648 28.1516 32.37 29.9973 30.223 29.9973Z" fill="#5A64EA"/>
<path d="M56.8438 33.5H63.2188C70.6406 33.5 74.7344 29.5 74.7344 22.625C74.7344 15.4531 70.7656 11.4219 63.25 11.4219H56.8438V33.5ZM60.8125 29.8594V15.0625H63.1875C68.625 15.0625 70.7656 17.2188 70.7656 22.4531C70.7656 27.9688 67.7031 29.8594 62.8281 29.8594H60.8125ZM78.2031 14.9375H82.2031V11.4219H78.2031V14.9375ZM78.2969 33.5H82.1094V17.8906H78.2969V33.5ZM91.375 33.8125C94.3281 33.8125 97.4688 32.2188 97.4688 28.6094C97.4688 22.875 89.5312 24.2812 89.5312 21.9219C89.5312 21.1875 90.2969 20.5781 91.5469 20.5781C93.2344 20.5781 94.1094 21.5938 94.6406 22.5625L97.5938 20.9531C96.4062 18.8438 94.3594 17.5625 91.6719 17.5625C88.6562 17.5625 85.875 19.125 85.875 22.4219C85.875 27.9375 93.7188 26.1719 93.7188 28.7969C93.7188 29.625 92.9531 30.6562 91.1875 30.6562C89.1094 30.6562 88.2812 29.2188 87.8594 28.0938L84.8281 29.4375C85.5938 31.8438 88.0938 33.8125 91.375 33.8125ZM107.016 33.8125C110.109 33.8125 112.547 32.0938 113.578 29.1875L110.109 27.875C109.703 29.3438 108.516 30.3594 106.984 30.3594C104.328 30.3594 103.328 28.0938 103.328 25.7188C103.328 23.3906 104.359 21.0156 106.984 21.0156C108.547 21.0156 109.703 22.0781 110.109 23.5781L113.734 22.1719C112.547 19.0625 110.078 17.5625 106.984 17.5625C101.891 17.5625 99.4531 21.625 99.4531 25.7188C99.4531 29.8594 101.922 33.8125 107.016 33.8125ZM122.891 33.8125C127.719 33.8125 130.891 30.0781 130.891 25.6562C130.891 21.25 127.719 17.5625 122.891 17.5625C118.062 17.5625 114.891 21.25 114.891 25.6562C114.891 30.0781 118.062 33.8125 122.891 33.8125ZM122.891 30.5312C120.016 30.5312 118.859 28.2188 118.859 25.6562C118.859 23.0938 120.016 20.8594 122.891 20.8594C125.781 20.8594 126.922 23.0938 126.922 25.6562C126.922 28.2188 125.781 30.5312 122.891 30.5312ZM133.984 33.5H137.672V26.9062C137.672 22.9375 139.531 21.2812 141.312 21.2812C141.922 21.2812 142.5 21.4688 143.016 21.8125L144.75 18.6875C144 17.9219 142.922 17.5625 141.891 17.5625C140.141 17.5625 138.375 18.625 137.703 20.5156V17.8906H133.984V33.5ZM151.5 33.8125C153.219 33.8125 154.953 33.2188 156.031 31.7344L156.203 33.5H159.75V11.4219H155.875V19.4531C154.797 18.1094 153.062 17.5625 151.438 17.5625C147.109 17.5625 144.734 21.375 144.734 25.6875C144.734 30.0469 147.109 33.8125 151.5 33.8125ZM152.422 30.3594C149.797 30.3594 148.609 28.3125 148.609 25.6875C148.609 23.0938 149.797 21.0156 152.422 21.0156C155.047 21.0156 156.203 23.0625 156.203 25.6875C156.203 28.3438 155.047 30.3594 152.422 30.3594Z" fill="#5A64EA"/>
</svg>
